<svg width="254" height="274" viewBox="0 0 254 274" fill="none" xmlns="http://www.w3.org/2000/svg">
<g clip-path="url(#clip0)">
<path d="M144.092 87.9107C144.282 86.0091 144.901 84.1755 145.903 82.5477C146.905 80.9199 148.263 79.5404 149.875 78.5129C151.487 77.4854 153.311 76.8367 155.21 76.6156C157.109 76.3945 159.033 76.6068 160.838 77.2365L159.922 77.33C164.032 78.1519 167.686 80.4846 170.16 83.8675C171.368 85.5586 172.199 87.4896 172.595 89.5296C172.992 91.5697 172.945 93.6711 172.458 95.6914C171.419 99.7038 168.352 103.185 164.427 104.52C162.245 105.263 159.902 105.354 157.597 105.432C156.101 105.483 154.578 105.528 153.136 105.128C151.281 104.553 149.65 103.417 148.469 101.876C147.299 100.341 146.369 98.6373 145.709 96.8237C144.591 93.9872 143.788 90.9441 144.092 87.9107Z" fill="#1F1E1C"/>
<path d="M111.501 272.773C114.76 260.521 107.522 248.58 99.0656 240.313C94.5587 235.907 89.5396 232.077 84.6451 228.121C79.9484 224.367 75.4759 220.34 71.2503 216.063C63.0907 207.715 55.9731 198.175 51.2595 187.451C46.7772 177.253 44.6585 166.144 45.708 155.017C46.7033 144.464 50.4876 134.083 57.449 125.987C58.3164 124.978 59.2289 124.011 60.1864 123.086C60.6999 122.587 61.4868 123.372 60.9724 123.871C53.1988 131.416 48.6743 141.641 47.1431 152.278C45.5639 163.248 47.191 174.431 51.2948 184.687C55.6664 195.612 62.6181 205.361 70.6799 213.868C74.7399 218.125 79.0589 222.128 83.6123 225.853C88.475 229.857 93.5278 233.64 98.1582 237.919C106.692 245.805 114.362 256.652 113.308 268.863C113.186 270.283 112.939 271.691 112.572 273.068C112.529 273.206 112.434 273.321 112.308 273.39C112.181 273.459 112.033 273.476 111.894 273.438C111.755 273.4 111.636 273.309 111.563 273.185C111.489 273.061 111.467 272.913 111.501 272.773V272.773Z" fill="#F0F0F0"/>
<path d="M77.372 203.024C82.5076 194.224 86.4353 184.772 89.0494 174.924C91.6716 165.079 92.9832 154.931 92.9501 144.743C92.9128 134.555 91.6753 124.113 88.5157 114.397C85.5169 105.177 80.144 96.3839 71.6139 91.3523C67.2636 88.8017 62.2975 87.4908 57.2546 87.5619C51.9281 87.6124 46.6753 89.0138 41.8761 91.2829C37.1758 93.5053 32.8779 96.5004 28.9075 99.8391C25.122 103.017 21.5895 106.484 18.342 110.21C11.9073 117.606 6.65042 126.17 3.71421 135.56C0.654221 145.346 0.117867 156.049 2.95776 165.954C5.68542 175.466 11.6609 183.574 18.9968 190.087C26.9247 197.126 36.3157 202.241 45.7854 206.883C48.1555 208.045 50.5385 209.181 52.9216 210.316C53.567 210.624 53.0037 211.582 52.3605 211.276C42.3752 206.519 32.2912 201.72 23.39 195.079C15.536 189.219 8.53529 181.862 4.37043 172.902C-0.0338821 163.426 -0.936462 152.651 0.88903 142.427C2.6731 132.435 7.14876 123.084 13.1388 114.939C16.1154 110.91 19.4234 107.136 23.0285 103.657C26.7272 100.006 30.7657 96.7163 35.0892 93.8317C43.9516 88.0415 55.0345 84.5448 65.5374 87.5274C74.8747 90.179 82.061 97.6571 86.3371 106.132C88.7304 110.876 90.3436 115.977 91.4911 121.153C92.6106 126.255 93.3635 131.429 93.744 136.638C95.27 157.423 91.1945 178.236 81.9417 196.912C80.8145 199.176 79.6113 201.401 78.3318 203.585C78.2548 203.707 78.1335 203.794 77.9934 203.828C77.8533 203.863 77.7054 203.841 77.5809 203.768C77.4564 203.695 77.365 203.577 77.326 203.438C77.2871 203.3 77.3036 203.151 77.372 203.024Z" fill="#F0F0F0"/>
<path d="M84.412 192.284C89.5476 183.483 93.4752 174.032 96.0893 164.184C98.7115 154.339 100.023 144.191 99.9901 134.003C99.9528 123.815 98.7153 113.372 95.5556 103.657C92.5568 94.4366 87.1839 85.6434 78.6539 80.6118C74.3036 78.0612 69.3375 76.7503 64.2945 76.8215C58.9681 76.8719 53.7153 78.2733 48.9161 80.5425C44.2158 82.7649 39.9178 85.7599 35.9475 89.0986C32.162 92.2765 28.6295 95.7438 25.3819 99.4692C18.9473 106.865 13.6904 115.429 10.7542 124.819C7.6942 134.605 7.15784 145.309 9.99773 155.213C12.7254 164.726 18.7009 172.834 26.0368 179.347C33.9646 186.385 43.3557 191.501 52.8253 196.143C55.1955 197.305 57.5785 198.44 59.9615 199.576C60.607 199.883 60.0436 200.841 59.4005 200.535C49.4152 195.778 39.3312 190.98 30.43 184.338C22.576 178.478 15.5753 171.122 11.4104 162.161C7.0061 152.685 6.10352 141.911 7.92901 131.687C9.71308 121.695 14.1887 112.343 20.1788 104.199C23.1554 100.169 26.4634 96.3956 30.0684 92.9168C33.7672 89.2659 37.8057 85.9759 42.1292 83.0913C50.9915 77.301 62.0744 73.8044 72.5773 76.787C81.9146 79.4385 89.1009 86.9166 93.377 95.3916C95.7704 100.135 97.3835 105.236 98.531 110.413C99.6506 115.514 100.403 120.689 100.784 125.898C102.31 146.682 98.2344 167.495 88.9816 186.171C87.8545 188.436 86.6512 190.66 85.3718 192.845C85.2948 192.966 85.1735 193.054 85.0333 193.088C84.8932 193.122 84.7453 193.1 84.6208 193.028C84.4963 192.955 84.4049 192.837 84.366 192.698C84.327 192.559 84.3435 192.411 84.412 192.284Z" fill="#F0F0F0"/>
<path d="M185.603 171.462C185.995 170.909 186.261 170.277 186.383 169.61C186.504 168.944 186.478 168.259 186.305 167.603C186.133 166.948 185.819 166.338 185.386 165.817C184.952 165.296 184.41 164.877 183.797 164.588L170.948 124.376L162 129.022L177.443 167.088C177.026 168.15 177.014 169.328 177.407 170.399C177.801 171.47 178.574 172.359 179.58 172.898C180.586 173.437 181.755 173.588 182.865 173.324C183.975 173.059 184.949 172.397 185.603 171.462H185.603Z" fill="#FFB6B6"/>
<path d="M175.106 129.937C175.229 129.664 175.292 129.369 175.291 129.07C175.289 128.772 175.223 128.477 175.097 128.206L170.696 118.749C170.262 117.284 169.264 116.051 167.922 115.32C166.58 114.589 165.003 114.42 163.536 114.85C162.069 115.28 160.833 116.273 160.098 117.613C159.363 118.952 159.189 120.528 159.614 121.996L161.085 132.356C161.127 132.651 161.232 132.935 161.394 133.186C161.555 133.437 161.769 133.651 162.02 133.812C162.272 133.974 162.555 134.079 162.851 134.121C163.146 134.163 163.448 134.141 163.734 134.056L173.802 131.075C174.088 130.99 174.353 130.844 174.578 130.648C174.804 130.452 174.984 130.209 175.106 129.937Z" fill="#1F1E1C"/>
<path d="M137.988 131.533C141.046 139.536 140.265 147.931 136.499 156.629H163.176C162.104 150.44 162.539 144.688 166.511 139.963L137.988 131.533Z" fill="#FFB6B6"/>
<path d="M169.211 116.825L161.315 111.085L148.396 107.498L137.629 109.65L136.996 115.597C136.226 122.831 136.561 130.139 137.988 137.272L165.981 143.729L168.852 138.707C168.852 138.707 175.312 132.25 170.287 125.076L169.211 116.825Z" fill="#1F1E1C"/>
<path d="M100.635 76.6786C100.459 77.3329 100.429 78.0178 100.546 78.6852C100.663 79.3525 100.925 79.986 101.314 80.5411C101.703 81.0962 102.209 81.5594 102.796 81.898C103.383 82.2366 104.037 82.4424 104.713 82.5009L130.703 115.773L137.487 108.316L109.806 77.9551C109.829 76.8146 109.433 75.7052 108.692 74.8372C107.952 73.9692 106.918 73.4028 105.788 73.2455C104.658 73.0881 103.509 73.3507 102.559 73.9834C101.609 74.6162 100.925 75.5751 100.635 76.6786Z" fill="#FFB6B6"/>
<path d="M124.875 111.997C124.854 112.295 124.898 112.594 125.003 112.873C125.108 113.153 125.272 113.406 125.484 113.617L132.89 120.964C133.805 122.188 135.168 123 136.681 123.22C138.193 123.441 139.732 123.054 140.959 122.143C142.186 121.232 143.001 119.871 143.226 118.36C143.452 116.849 143.068 115.31 142.16 114.081L137.189 104.872C137.048 104.609 136.851 104.38 136.612 104.2C136.374 104.02 136.099 103.894 135.808 103.829C135.516 103.765 135.214 103.764 134.922 103.827C134.629 103.89 134.354 104.015 134.115 104.194L125.704 110.478C125.465 110.656 125.267 110.884 125.124 111.147C124.981 111.409 124.896 111.699 124.875 111.997Z" fill="#1F1E1C"/>
<path d="M169.175 265.49H165.087L163.143 249.729H169.176L169.175 265.49Z" fill="#FFB6B6"/>
<path d="M170.56 263.474L164.097 263.089V265.856L157.953 270.098C157.65 270.307 157.421 270.608 157.301 270.957C157.181 271.305 157.175 271.683 157.285 272.035C157.395 272.387 157.614 272.694 157.911 272.913C158.208 273.131 158.567 273.249 158.936 273.249H166.63L167.956 270.511L168.474 273.249H171.375L170.56 263.474Z" fill="#1F1E1C"/>
<path d="M140.275 265.49H136.187L134.242 249.729H140.275L140.275 265.49Z" fill="#FFB6B6"/>
<path d="M141.659 263.474L135.197 263.089V265.856L129.053 270.098C128.749 270.307 128.52 270.608 128.4 270.957C128.28 271.305 128.274 271.683 128.384 272.035C128.494 272.387 128.713 272.694 129.01 272.913C129.307 273.131 129.667 273.249 130.035 273.249H137.729L139.055 270.511L139.573 273.249H142.474L141.659 263.474Z" fill="#1F1E1C"/>
<path d="M129.414 177.181V185.218L130.2 195.036C130.2 195.036 130.448 203.61 130.748 210.373C130.929 214.484 131.133 217.924 131.311 218.369C131.53 218.913 131.478 220.398 131.352 221.958C131.204 223.761 130.959 225.665 130.918 226.302C130.841 227.491 131.471 232.598 131.471 232.598C131.471 232.598 132.175 245.405 133.197 246.427C134.22 247.45 133.197 250.357 133.197 250.357C137.992 253.89 144.046 249.572 144.046 249.572C142.708 247.442 144.832 232.906 144.832 232.906C144.832 232.906 145.143 227.943 145.773 226.609C146.403 225.276 146.562 216.947 146.562 216.947V204.61C146.562 204.61 148.215 202.084 148.448 200.906C148.681 199.728 148.448 195.566 148.448 195.566L150.175 189.751L151.357 194.306C151.357 194.306 154.417 207.036 154.969 208.606C155.521 210.176 154.658 211.75 154.658 211.75C154.658 211.75 153.869 214.173 154.658 215.284C155.148 215.98 155.524 216.75 155.769 217.565C155.769 217.565 156.173 222.202 156.881 223.861C157.589 225.521 158.215 227.565 158.215 227.565C158.215 227.565 158.048 230.698 158.756 231.406C159.464 232.113 159.697 235.65 159.697 235.65C159.697 235.65 159.541 239.654 160.486 241.068C161.431 242.483 161.431 250.498 161.431 250.498C163.07 251.549 164.958 252.146 166.903 252.229C168.848 252.311 170.78 251.876 172.502 250.968C172.502 250.968 171.569 250.094 172.276 246.02C172.984 241.946 171.769 230.854 171.769 230.854C171.769 230.854 171.924 228.039 171.139 226.78C170.353 225.521 171.535 223.087 171.22 221.987C170.905 220.887 169.961 214.913 169.961 214.913C169.961 214.913 170.353 200.221 170.353 199.436C170.446 198.038 170.825 196.674 171.465 195.428C172.172 194.173 171.465 185.058 171.465 185.058C171.465 185.058 169.798 180.347 170.353 179.325C170.909 178.303 169.983 176.496 169.983 176.496C169.983 176.496 170.846 174.373 169.983 173.981C169.119 173.588 168.96 172.018 168.96 172.018L168.36 164.396C168.36 164.396 168.134 160.937 167.415 160.781C166.696 160.625 167.011 159.292 166.303 158.348C165.959 157.709 165.721 157.019 165.599 156.303C165.499 155.866 165.407 155.411 165.329 154.974C165.107 153.789 164.97 152.766 164.97 152.766C160.331 156.618 135.939 153.918 135.913 153.918C134.364 154.255 132.523 159.629 131.193 164.314C130.01 168.501 129.412 172.83 129.414 177.181Z" fill="#1F1E1C"/>
<path d="M147.156 97.3847C145.378 91.5387 148.678 85.359 154.526 83.5818C160.375 81.8047 166.557 85.1031 168.335 90.9491C170.113 96.7951 166.813 102.975 160.965 104.752C155.116 106.529 148.934 103.231 147.156 97.3847Z" fill="#FFB6B6"/>
<path d="M170.256 96.0952L165.97 95.2038L165.181 89.5186L163.701 94.7319L161.653 94.3059L161.192 90.9895L160.329 94.0306L145.108 90.8648C145.421 89.359 146.028 87.9298 146.894 86.6586C147.761 85.3873 148.869 84.2991 150.155 83.4559C151.442 82.6128 152.883 82.0312 154.394 81.7444C155.906 81.4577 157.459 81.4713 158.966 81.7846L161.172 82.2435C164.214 82.8762 166.88 84.6911 168.584 87.2888C170.287 89.8865 170.889 93.0543 170.256 96.0952Z" fill="#1F1E1C"/>
<path d="M126.409 12.9068L126.438 12.9608C132.027 10.3868 138.393 10.0607 144.217 12.0501C150.041 14.0395 154.876 18.1919 157.72 23.6471C160.564 29.1024 161.2 35.4423 159.496 41.3534C157.792 47.2645 153.878 52.2938 148.566 55.3993L148.594 55.4533L106.029 77.6279L83.8444 35.0814C82.3842 32.2874 81.4891 29.2332 81.2105 26.0932C80.9318 22.9533 81.275 19.7892 82.2204 16.782C83.1657 13.7747 84.6948 10.9831 86.7202 8.56687C88.7455 6.15062 91.2274 4.15706 94.024 2.70015C96.8207 1.24324 99.8771 0.351547 103.019 0.0760481C106.16 -0.199451 109.325 0.146644 112.333 1.09455C115.341 2.04245 118.132 3.57359 120.547 5.60041C122.963 7.62723 124.955 10.11 126.409 12.9068Z" fill="#CEBA90"/>
<path d="M88.4868 257.052L88.4939 257.066C89.9067 256.415 91.5157 256.333 92.9876 256.835C94.4596 257.338 95.6816 258.388 96.4005 259.767C97.1194 261.145 97.2802 262.748 96.8494 264.242C96.4187 265.736 95.4295 267.007 94.0867 267.792L94.0938 267.806L83.3356 273.41L77.7285 262.657C77.3594 261.951 77.1331 261.179 77.0626 260.385C76.9921 259.591 77.0788 258.791 77.3177 258.031C77.5566 257.271 77.9431 256.566 78.455 255.955C78.9669 255.344 79.5942 254.84 80.3011 254.472C81.008 254.104 81.7806 253.878 82.5747 253.809C83.3687 253.739 84.1688 253.826 84.929 254.066C85.6892 254.306 86.3947 254.693 87.0052 255.205C87.6157 255.718 88.1191 256.345 88.4868 257.052Z" fill="#FF6584"/>
<path d="M231.2 120.701V120.762C237.347 121.062 243.144 123.713 247.388 128.168C251.633 132.623 254 138.538 254 144.69C254 150.842 251.632 156.758 247.388 161.212C243.144 165.667 237.347 168.319 231.2 168.618V168.679L183.201 168.679L183.201 120.701C183.198 117.549 183.817 114.427 185.022 111.514C186.226 108.6 187.994 105.953 190.222 103.723C192.451 101.493 195.098 99.724 198.011 98.517C200.925 97.31 204.047 96.6887 207.201 96.6887C210.354 96.6887 213.477 97.31 216.39 98.517C219.304 99.724 221.95 101.493 224.179 103.723C226.408 105.953 228.175 108.6 229.38 111.514C230.585 114.427 231.203 117.549 231.2 120.701V120.701Z" fill="#CEBA90"/>
<path d="M7.50601 274H247.344C247.461 274 247.573 273.954 247.656 273.871C247.739 273.788 247.785 273.676 247.785 273.559C247.785 273.442 247.739 273.33 247.656 273.247C247.573 273.165 247.461 273.118 247.344 273.118H7.50601C7.38901 273.118 7.27679 273.165 7.19406 273.247C7.11133 273.33 7.06483 273.442 7.06483 273.559C7.06483 273.676 7.11133 273.788 7.19406 273.871C7.27679 273.954 7.38901 274 7.50601 274Z" fill="#CACACA"/>
<path d="M45.6917 166.027C40.7891 165.996 36.0489 164.267 32.2794 161.133C28.442 157.907 25.9164 153.391 25.1781 148.434C24.7446 145.631 24.8842 142.77 25.5887 140.023C25.6318 139.885 25.7267 139.77 25.8533 139.701C25.9799 139.632 26.1283 139.615 26.2673 139.653C26.4063 139.692 26.525 139.782 26.5983 139.906C26.6717 140.03 26.694 140.178 26.6606 140.318C25.4725 144.982 26.0085 149.919 28.1701 154.219C29.8308 157.435 32.343 160.133 35.4328 162.019C38.5226 163.906 42.0713 164.907 45.6917 164.916C45.8358 164.921 45.9723 164.981 46.0724 165.085C46.1726 165.189 46.2286 165.327 46.2286 165.471C46.2286 165.615 46.1726 165.754 46.0724 165.857C45.9723 165.961 45.8358 166.022 45.6917 166.027V166.027Z" fill="#F0F0F0"/>
<path d="M131.523 21.7113C134.686 18.7104 139.68 18.7182 143.332 20.8073C147.431 23.1517 149.289 27.996 149.195 32.5445C149.09 37.6636 146.585 42.2988 143.352 46.1379C139.906 50.1268 135.896 53.5916 131.449 56.4226C127.014 59.3097 122.215 61.5956 117.178 63.2204C116.558 63.4202 115.935 63.6095 115.309 63.7884C115.168 63.8218 115.021 63.7995 114.896 63.7262C114.772 63.6529 114.682 63.5343 114.643 63.3953C114.605 63.2564 114.622 63.108 114.691 62.9815C114.76 62.8549 114.875 62.7601 115.013 62.717C124.686 59.9542 133.48 54.7387 140.542 47.5768C143.904 44.1351 146.891 39.9988 147.81 35.1845C148.621 30.9328 147.725 25.9962 144.428 22.9678C141.223 20.0238 135.614 19.3609 132.309 22.497C131.79 22.9892 131.003 22.2048 131.523 21.7113V21.7113Z" fill="white"/>
<path d="M232.022 132.389C236.294 131.858 240.306 134.861 241.97 138.655C243.836 142.909 242.578 147.813 239.871 151.408C236.891 155.368 232.376 157.676 227.656 158.902C222.59 160.217 217.212 160.572 211.997 160.329C205.832 160.043 199.748 158.807 193.961 156.664C193.296 156.418 193.584 155.343 194.257 155.593C203.89 159.169 214.615 160.297 224.746 158.409C229.274 157.565 233.886 155.955 237.261 152.699C240.318 149.748 242.482 145.279 241.561 140.963C240.647 136.675 236.568 132.935 232.022 133.5C231.314 133.588 231.32 132.476 232.022 132.389Z" fill="white"/>
<path d="M160.949 77.9637C159.916 73.835 161.917 69.4065 165.016 66.4878C168.114 63.5691 172.158 61.8917 176.16 60.4393C179.352 59.2811 183.09 58.2737 185.979 60.0575C188.3 61.4909 189.307 64.2752 190.633 66.6581C193.162 71.199 197.241 74.6783 202.125 76.4598C207.009 78.2413 212.372 78.2058 217.232 76.36C215.519 81.3308 209.618 83.7622 204.369 83.4245C199.12 83.0868 194.272 80.6707 189.383 78.7332C184.493 76.7956 179.054 75.2987 174.029 76.8503C171.908 77.5052 169.979 78.674 167.879 79.3933C165.778 80.1125 163.321 80.3267 161.449 79.1334" fill="#1F1E1C"/>
<path d="M87.432 229.179L91.01 222.883C91.087 222.762 91.2083 222.674 91.3484 222.64C91.4885 222.606 91.6365 222.628 91.761 222.7C91.8855 222.773 91.9768 222.891 92.0158 223.03C92.0547 223.169 92.0382 223.317 91.9698 223.444L88.3918 229.739C88.3148 229.861 88.1935 229.948 88.0533 229.983C87.9132 230.017 87.7653 229.995 87.6408 229.922C87.5163 229.85 87.4249 229.732 87.386 229.593C87.347 229.454 87.3635 229.305 87.432 229.179Z" fill="#F0F0F0"/>
</g>
<defs>
<clipPath id="clip0">
<rect width="254" height="274" fill="white" transform="matrix(-1 0 0 1 254 0)"/>
</clipPath>
</defs>
</svg>
