<svg width="311" height="135" viewBox="0 0 311 135" fill="none" xmlns="http://www.w3.org/2000/svg">
<g clip-path="url(#clip0)">
<path d="M30.4688 55.6916H212.934C213.709 55.6916 214.452 55.9996 215 56.5478C215.548 57.0959 215.855 57.8395 215.855 58.6147C215.855 59.39 215.548 60.1335 215 60.6817C214.452 61.2299 213.709 61.5378 212.934 61.5378H207.766V131.468C207.766 132.243 207.458 132.987 206.91 133.535C206.362 134.083 205.619 134.391 204.845 134.391C204.07 134.391 203.327 134.083 202.779 133.535C202.231 132.987 201.923 132.243 201.923 131.468L201.879 61.5378H55.4319L41.9291 131.468C41.9291 132.243 41.6213 132.987 41.0734 133.535C40.5256 134.083 39.7826 134.391 39.0078 134.391C38.233 134.391 37.49 134.083 36.9422 133.535C36.3943 132.987 36.0866 132.243 36.0866 131.468L35.2367 61.5378H30.4688C29.694 61.5378 28.951 61.2299 28.4032 60.6817C27.8553 60.1335 27.5476 59.39 27.5476 58.6147C27.5476 57.8395 27.8553 57.0959 28.4032 56.5478C28.951 55.9996 29.694 55.6916 30.4688 55.6916Z" fill="#AFADAD"/>
<path d="M181.306 42.6665V55.0452H212.299C213.112 55.0734 213.922 54.9413 214.683 54.6564C215.444 54.3715 216.142 53.9393 216.736 53.3846C217.33 52.8299 217.81 52.1634 218.147 51.4233C218.484 50.6832 218.672 49.884 218.7 49.0712C218.728 48.2584 218.596 47.448 218.311 46.6862C218.027 45.9245 217.595 45.2263 217.04 44.6316C216.486 44.0369 215.82 43.5572 215.08 43.2201C214.341 42.8829 213.542 42.6948 212.73 42.6665C212.586 42.6615 212.443 42.6615 212.299 42.6665L181.306 42.6665Z" fill="#F2F2F2"/>
<path d="M180.545 54.9499C180.545 55.0762 180.595 55.1973 180.684 55.2865C180.774 55.3758 180.895 55.426 181.021 55.426H212.851C214.579 55.4248 216.236 54.7371 217.458 53.514C218.679 52.2909 219.365 50.6326 219.365 48.9034C219.365 47.1743 218.679 45.516 217.458 44.2929C216.236 43.0698 214.579 42.3821 212.851 42.3809H181.021C180.958 42.3807 180.896 42.3929 180.838 42.4168C180.78 42.4406 180.728 42.4756 180.684 42.5199C180.639 42.5641 180.604 42.6166 180.58 42.6745C180.556 42.7323 180.544 42.7943 180.544 42.857C180.544 42.9196 180.556 42.9816 180.58 43.0395C180.604 43.0973 180.639 43.1498 180.684 43.1941C180.728 43.2383 180.78 43.2733 180.838 43.2972C180.896 43.321 180.958 43.3332 181.021 43.3331H212.851C214.326 43.3353 215.74 43.9232 216.782 44.9676C217.824 46.012 218.41 47.4275 218.41 48.9034C218.41 50.3793 217.824 51.7949 216.782 52.8393C215.74 53.8837 214.326 54.4716 212.851 54.4738H181.021C180.895 54.4739 180.774 54.5241 180.684 54.6133C180.595 54.7026 180.545 54.8237 180.545 54.9499Z" fill="#CEBA90"/>
<path d="M181.306 45.5232H214.612C214.637 45.5233 214.661 45.5135 214.679 45.4958C214.697 45.4781 214.707 45.454 214.708 45.4288C214.708 45.4037 214.698 45.3794 214.68 45.3614C214.663 45.3434 214.639 45.3331 214.614 45.3328H181.306C181.281 45.333 181.257 45.3432 181.24 45.361C181.222 45.3788 181.212 45.4029 181.212 45.428C181.212 45.4531 181.222 45.4771 181.24 45.495C181.257 45.5128 181.281 45.5229 181.306 45.5232Z" fill="#AFADAD"/>
<path d="M181.306 47.8085H214.612C214.637 47.8086 214.661 47.7988 214.679 47.7811C214.697 47.7634 214.707 47.7393 214.708 47.7141C214.708 47.6889 214.698 47.6647 214.68 47.6467C214.663 47.6287 214.639 47.6184 214.614 47.618H181.306C181.281 47.6183 181.257 47.6284 181.24 47.6463C181.222 47.6641 181.212 47.6882 181.212 47.7133C181.212 47.7384 181.222 47.7624 181.24 47.7803C181.257 47.7981 181.281 47.8082 181.306 47.8085Z" fill="#AFADAD"/>
<path d="M181.306 50.0937H214.612C214.637 50.0939 214.661 50.084 214.679 50.0663C214.697 50.0487 214.707 50.0246 214.708 49.9994C214.708 49.9742 214.698 49.95 214.68 49.932C214.663 49.9139 214.639 49.9037 214.614 49.9033H181.306C181.281 49.9036 181.257 49.9137 181.24 49.9315C181.222 49.9494 181.212 49.9734 181.212 49.9985C181.212 50.0236 181.222 50.0477 181.24 50.0655C181.257 50.0833 181.281 50.0935 181.306 50.0937Z" fill="#AFADAD"/>
<path d="M181.306 52.3789H214.612C214.637 52.379 214.661 52.3692 214.679 52.3515C214.697 52.3338 214.707 52.3098 214.708 52.2846C214.708 52.2594 214.698 52.2351 214.68 52.2171C214.663 52.1991 214.639 52.1888 214.614 52.1885H181.306C181.281 52.1887 181.257 52.1989 181.24 52.2167C181.222 52.2345 181.212 52.2586 181.212 52.2837C181.212 52.3088 181.222 52.3329 181.24 52.3507C181.257 52.3685 181.281 52.3787 181.306 52.3789Z" fill="#AFADAD"/>
<path d="M187.149 29.6249V42.0035H218.142C219.782 42.0606 221.378 41.4633 222.579 40.343C223.779 39.2226 224.485 37.671 224.542 36.0295C224.599 34.388 224.003 32.7911 222.883 31.59C221.763 30.3889 220.213 29.682 218.572 29.6249C218.429 29.6199 218.285 29.6199 218.142 29.6249H187.149Z" fill="#F2F2F2"/>
<path d="M186.387 41.9083C186.387 42.0346 186.438 42.1557 186.527 42.2449C186.616 42.3342 186.737 42.3844 186.863 42.3844H218.694C220.423 42.3844 222.081 41.6973 223.303 40.474C224.525 39.2508 225.212 37.5918 225.212 35.8619C225.212 34.132 224.525 32.4729 223.303 31.2497C222.081 30.0265 220.423 29.3393 218.694 29.3393H186.863C186.801 29.3393 186.739 29.3516 186.681 29.3755C186.623 29.3995 186.571 29.4345 186.527 29.4787C186.483 29.5229 186.448 29.5754 186.424 29.6332C186.4 29.691 186.387 29.7529 186.387 29.8154C186.387 29.8779 186.4 29.9398 186.424 29.9976C186.448 30.0553 186.483 30.1078 186.527 30.152C186.571 30.1963 186.623 30.2313 186.681 30.2552C186.739 30.2792 186.801 30.2915 186.863 30.2915H218.694C220.17 30.2915 221.586 30.8784 222.63 31.923C223.674 32.9677 224.261 34.3845 224.261 35.8619C224.261 37.3392 223.674 38.7561 222.63 39.8007C221.586 40.8454 220.17 41.4323 218.694 41.4323H186.863C186.737 41.4323 186.616 41.4825 186.527 41.5718C186.438 41.661 186.387 41.7821 186.387 41.9083Z" fill="#1F1E1C"/>
<path d="M187.149 32.4814H220.454C220.48 32.4816 220.504 32.4717 220.522 32.454C220.54 32.4364 220.55 32.4123 220.55 32.3871C220.55 32.3619 220.541 32.3377 220.523 32.3197C220.505 32.3016 220.481 32.2913 220.456 32.291H187.149C187.124 32.2913 187.1 32.3014 187.082 32.3192C187.064 32.3371 187.055 32.3611 187.055 32.3862C187.055 32.4113 187.064 32.4354 187.082 32.4532C187.1 32.4711 187.124 32.4812 187.149 32.4814Z" fill="#AFADAD"/>
<path d="M187.149 34.7667H220.454C220.48 34.7669 220.504 34.757 220.522 34.7393C220.54 34.7217 220.55 34.6976 220.55 34.6724C220.55 34.6472 220.541 34.623 220.523 34.6049C220.505 34.5869 220.481 34.5766 220.456 34.5763H187.149C187.124 34.5765 187.1 34.5867 187.082 34.6045C187.064 34.6224 187.055 34.6464 187.055 34.6715C187.055 34.6966 187.064 34.7207 187.082 34.7385C187.1 34.7563 187.124 34.7665 187.149 34.7667Z" fill="#AFADAD"/>
<path d="M187.149 37.052H220.454C220.48 37.0521 220.504 37.0423 220.522 37.0246C220.54 37.0069 220.55 36.9829 220.55 36.9577C220.55 36.9325 220.541 36.9082 220.523 36.8902C220.505 36.8722 220.481 36.8619 220.456 36.8616H187.149C187.124 36.8618 187.1 36.872 187.082 36.8898C187.064 36.9076 187.055 36.9317 187.055 36.9568C187.055 36.9819 187.064 37.006 187.082 37.0238C187.1 37.0416 187.124 37.0517 187.149 37.052Z" fill="#AFADAD"/>
<path d="M187.149 39.3373H220.454C220.48 39.3374 220.504 39.3276 220.522 39.3099C220.54 39.2922 220.55 39.2681 220.55 39.2429C220.55 39.2178 220.541 39.1935 220.523 39.1755C220.505 39.1575 220.481 39.1472 220.456 39.1469H187.149C187.124 39.1471 187.1 39.1572 187.082 39.1751C187.064 39.1929 187.055 39.217 187.055 39.2421C187.055 39.2672 187.064 39.2912 187.082 39.3091C187.1 39.3269 187.124 39.337 187.149 39.3373Z" fill="#AFADAD"/>
<path d="M151.094 99.4941V88.7011C151.094 88.224 151.284 87.7664 151.621 87.4291C151.958 87.0918 152.415 86.9022 152.892 86.9022H193.789C194.266 86.9022 194.723 87.0918 195.06 87.4291C195.398 87.7664 195.587 88.224 195.587 88.7011V99.4941H151.094Z" fill="#AFADAD"/>
<path d="M151.094 103.542H195.587V117.483H151.094V103.542Z" fill="#AFADAD"/>
<path d="M195.587 121.53V132.323C195.587 132.8 195.398 133.258 195.06 133.595C194.723 133.932 194.266 134.122 193.789 134.122H152.892C152.415 134.122 151.958 133.932 151.621 133.595C151.284 133.258 151.094 132.8 151.094 132.323V121.53H195.587Z" fill="#AFADAD"/>
<path d="M173.565 94.9969C172.821 94.9969 172.217 94.3929 172.217 93.6478C172.217 92.9027 172.821 92.2986 173.565 92.2986C174.31 92.2986 174.914 92.9027 174.914 93.6478C174.914 94.3929 174.31 94.9969 173.565 94.9969Z" fill="white"/>
<path d="M173.565 112.985C172.821 112.985 172.217 112.381 172.217 111.636C172.217 110.891 172.821 110.287 173.565 110.287C174.31 110.287 174.914 110.891 174.914 111.636C174.914 112.381 174.31 112.985 173.565 112.985Z" fill="white"/>
<path d="M173.493 130.593C172.748 130.593 172.145 129.989 172.145 129.244C172.145 128.499 172.748 127.895 173.493 127.895C174.238 127.895 174.841 128.499 174.841 129.244C174.841 129.989 174.238 130.593 173.493 130.593Z" fill="white"/>
<path d="M156.139 74.596V86.9746H187.132C188.771 87.0306 190.366 86.4327 191.566 85.3125C192.765 84.1923 193.471 82.6414 193.528 81.0006C193.585 79.3599 192.989 77.7636 191.87 76.5626C190.752 75.3616 189.202 74.6543 187.563 74.596C187.419 74.591 187.275 74.591 187.132 74.596H156.139Z" fill="#F2F2F2"/>
<path d="M155.377 86.8793C155.377 87.0056 155.427 87.1266 155.517 87.2159C155.606 87.3052 155.727 87.3554 155.853 87.3554H187.684C189.412 87.3559 191.07 86.6694 192.293 85.447C193.515 84.2245 194.203 82.5663 194.204 80.8368C194.205 79.1073 193.519 77.4481 192.298 76.2243C191.077 75.0004 189.42 74.3119 187.692 74.3102H155.853C155.79 74.3101 155.728 74.3223 155.671 74.3461C155.613 74.37 155.56 74.405 155.516 74.4492C155.472 74.4935 155.436 74.546 155.412 74.6039C155.388 74.6617 155.376 74.7237 155.376 74.7863C155.376 74.849 155.388 74.911 155.412 74.9688C155.436 75.0267 155.472 75.0792 155.516 75.1234C155.56 75.1677 155.613 75.2027 155.671 75.2266C155.728 75.2504 155.79 75.2626 155.853 75.2624H187.684C189.159 75.2644 190.573 75.8521 191.615 76.8965C192.658 77.941 193.243 79.3567 193.243 80.8328C193.243 82.3089 192.658 83.7247 191.615 84.7691C190.573 85.8136 189.159 86.4013 187.684 86.4032H155.853C155.727 86.4033 155.606 86.4534 155.517 86.5427C155.427 86.632 155.377 86.7531 155.377 86.8793Z" fill="#1F1E1C"/>
<path d="M156.139 77.4527H189.444C189.469 77.4528 189.494 77.4429 189.512 77.4253C189.529 77.4076 189.54 77.3835 189.54 77.3583C189.54 77.3331 189.53 77.3089 189.513 77.2908C189.495 77.2728 189.471 77.2625 189.446 77.2622H156.139C156.113 77.2625 156.09 77.2726 156.072 77.2904C156.054 77.3083 156.044 77.3323 156.044 77.3574C156.044 77.3825 156.054 77.4066 156.072 77.4244C156.09 77.4423 156.113 77.4524 156.139 77.4527H156.139Z" fill="#AFADAD"/>
<path d="M156.139 79.7378H189.444C189.469 79.738 189.494 79.7281 189.512 79.7104C189.529 79.6928 189.54 79.6687 189.54 79.6435C189.54 79.6183 189.53 79.594 189.513 79.576C189.495 79.558 189.471 79.5477 189.446 79.5474H156.139C156.113 79.5476 156.09 79.5578 156.072 79.5756C156.054 79.5934 156.044 79.6175 156.044 79.6426C156.044 79.6677 156.054 79.6918 156.072 79.7096C156.09 79.7274 156.113 79.7376 156.139 79.7378H156.139Z" fill="#AFADAD"/>
<path d="M156.139 82.023H189.444C189.469 82.0232 189.494 82.0133 189.512 81.9956C189.529 81.9779 189.54 81.9539 189.54 81.9287C189.54 81.9035 189.53 81.8792 189.513 81.8612C189.495 81.8432 189.471 81.8329 189.446 81.8326H156.139C156.113 81.8328 156.09 81.843 156.072 81.8608C156.054 81.8786 156.044 81.9027 156.044 81.9278C156.044 81.9529 156.054 81.977 156.072 81.9948C156.09 82.0126 156.113 82.0228 156.139 82.023H156.139Z" fill="#AFADAD"/>
<path d="M156.139 84.3085H189.444C189.469 84.3086 189.494 84.2988 189.512 84.2811C189.529 84.2634 189.54 84.2393 189.54 84.2141C189.54 84.1889 189.53 84.1647 189.513 84.1467C189.495 84.1287 189.471 84.1184 189.446 84.118H156.139C156.113 84.1183 156.09 84.1284 156.072 84.1463C156.054 84.1641 156.044 84.1882 156.044 84.2133C156.044 84.2383 156.054 84.2624 156.072 84.2803C156.09 84.2981 156.113 84.3082 156.139 84.3085H156.139Z" fill="#AFADAD"/>
<path d="M192.538 25.4954H206.659C206.793 25.4953 206.925 25.5261 207.046 25.5854L210.61 27.3707C210.727 27.4206 210.827 27.5039 210.897 27.6103C210.968 27.7166 211.005 27.8413 211.005 27.9688C211.005 28.0964 210.968 28.2211 210.897 28.3274C210.827 28.4338 210.727 28.5171 210.61 28.5669L207.046 30.3523C206.925 30.4116 206.793 30.4424 206.659 30.4422H192.538C192.344 30.4535 192.153 30.3876 192.006 30.2588C191.86 30.13 191.77 29.9487 191.756 29.7542V26.1835C191.77 25.9889 191.86 25.8076 192.006 25.6789C192.153 25.5501 192.344 25.4842 192.538 25.4954Z" fill="#1F1E1C"/>
<path d="M191.756 26.1835V29.7542C191.77 29.9487 191.86 30.1301 192.006 30.2588C192.153 30.3876 192.344 30.4535 192.538 30.4423H195.352V25.4954H192.538C192.344 25.4842 192.153 25.5501 192.006 25.6789C191.86 25.8076 191.77 25.989 191.756 26.1835Z" fill="#CEBA90"/>
<path d="M277.197 95.4617C275.379 96.1012 273.427 96.2614 271.528 95.9268C269.63 95.5923 267.85 94.7742 266.36 93.5514C262.564 90.3635 261.374 85.1115 260.406 80.2483C259.451 75.4536 258.496 70.6589 257.542 65.8641L263.538 69.9956C267.85 72.9667 272.26 76.033 275.245 80.3366C278.231 84.6401 279.534 90.5148 277.135 95.1714" fill="#E6E6E6"/>
<path d="M276.684 112.877C277.291 108.453 277.915 103.973 277.49 99.5016C277.112 95.5308 275.901 91.6526 273.436 88.4726C272.128 86.7879 270.536 85.3445 268.732 84.2072C268.262 83.9101 267.829 84.656 268.297 84.9519C271.419 86.9258 273.833 89.8407 275.192 93.2762C276.693 97.0967 276.934 101.261 276.675 105.32C276.519 107.774 276.187 110.212 275.853 112.647C275.827 112.757 275.843 112.873 275.899 112.972C275.955 113.07 276.046 113.144 276.154 113.178C276.265 113.207 276.382 113.192 276.481 113.136C276.58 113.08 276.653 112.986 276.684 112.876L276.684 112.877Z" fill="#F2F2F2"/>
<path d="M270.839 105.049C270.059 106.235 268.987 107.2 267.726 107.851C266.466 108.502 265.059 108.817 263.641 108.766C259.997 108.593 256.959 106.049 254.225 103.633L246.136 96.4866L251.489 96.2303C255.339 96.0459 259.288 95.874 262.955 97.0619C266.621 98.2498 270.003 101.109 270.673 104.906" fill="#E6E6E6"/>
<path d="M278.4 115.42C275.479 110.248 272.09 104.499 266.036 102.662C264.353 102.153 262.588 101.971 260.836 102.125C260.284 102.173 260.421 103.024 260.973 102.977C263.909 102.733 266.84 103.509 269.272 105.174C271.612 106.767 273.433 108.983 274.975 111.333C275.92 112.772 276.766 114.273 277.612 115.771C277.883 116.25 278.673 115.904 278.4 115.42L278.4 115.42Z" fill="#F2F2F2"/>
<path d="M283.08 120.864C282.982 119.722 282.572 118.63 281.896 117.706C281.22 116.781 280.304 116.06 279.247 115.621V112.631H274.235V115.715C273.23 116.176 272.365 116.895 271.728 117.8C271.091 118.704 270.706 119.761 270.61 120.864L269.432 134.572H284.259L283.08 120.864Z" fill="#F2F2F2"/>
<path d="M112.637 55.4106L114.128 54.7824L115.151 47.3035H128.771L129.88 54.7518L131.214 55.4192C131.277 55.4511 131.329 55.5037 131.359 55.5684C131.389 55.633 131.397 55.706 131.38 55.7755C131.364 55.845 131.324 55.9069 131.268 55.9512C131.212 55.9955 131.143 56.0196 131.072 56.0196H112.76C112.687 56.0196 112.616 55.9943 112.56 55.948C112.503 55.9016 112.464 55.8371 112.45 55.7654C112.435 55.6937 112.446 55.6192 112.48 55.5545C112.514 55.4898 112.57 55.439 112.637 55.4106Z" fill="#E6E6E6"/>
<path d="M88.4335 48.2986H155.339C155.69 48.2978 156.026 48.1577 156.274 47.909C156.522 47.6604 156.662 47.3235 156.662 46.9722V37.5316H87.1109V46.9722C87.1109 47.3235 87.2502 47.6604 87.4981 47.909C87.7461 48.1577 88.0824 48.2978 88.4335 48.2986Z" fill="#AFADAD"/>
<path d="M87.041 41.9933H156.723V1.59891C156.722 1.17499 156.554 0.768582 156.254 0.468833C155.955 0.169084 155.548 0.000474336 155.125 0H88.639C88.2153 0.000474328 87.8091 0.169084 87.5096 0.468833C87.21 0.768582 87.0415 1.17499 87.041 1.59891L87.041 41.9933Z" fill="#1F1E1C"/>
<path d="M91.2028 39.0615H152.561C152.887 39.0612 153.201 38.9312 153.431 38.7001C153.662 38.469 153.792 38.1557 153.793 37.8289V4.16449C153.792 3.83767 153.662 3.52434 153.432 3.29323C153.201 3.06213 152.887 2.93214 152.561 2.93176H91.2028C90.8762 2.93214 90.5631 3.06213 90.3321 3.29323C90.1012 3.52434 89.9713 3.83767 89.9709 4.16449V37.8289C89.9713 38.1557 90.1012 38.469 90.3321 38.7001C90.5631 38.9312 90.8762 39.0612 91.2028 39.0615Z" fill="white"/>
<path d="M107.364 50.94C106.967 50.5738 106.496 50.299 105.982 50.135C105.468 49.9709 104.925 49.9216 104.39 49.9904C103.855 50.0593 103.342 50.2446 102.886 50.5335C102.431 50.8223 102.044 51.2075 101.753 51.6621L93.4541 50.1856L91.3273 55.0135L103.077 56.9339C103.872 57.3718 104.801 57.5026 105.686 57.3014C106.572 57.1002 107.352 56.581 107.881 55.8421C108.409 55.1033 108.648 54.1962 108.553 53.2927C108.458 52.3892 108.035 51.5521 107.364 50.94Z" fill="#FFB6B6"/>
<path d="M99.6796 57.1045L91.0273 56.9966L89.9321 56.9818L72.3286 56.7598C72.3286 56.7598 67.5483 52.1964 63.3858 47.498L63.9692 43.2753C64.5383 39.1313 66.5927 35.3352 69.7501 32.5937C75.7118 36.5798 79.1691 44.4699 79.1691 44.4699L90.0838 47.0822L91.1758 47.3435L97.9577 48.9651L99.6796 57.1045Z" fill="#CEBA90"/>
<path d="M55.3875 83.0586H71.5381C71.5381 83.7511 89.1929 84.3131 89.1929 84.3131C89.5824 84.6065 89.9373 84.9432 90.251 85.3166C91.1934 86.4414 91.7085 87.8631 91.7054 89.3309V90.3345C91.7048 91.9978 91.0442 93.5929 89.8688 94.769C88.6934 95.9452 87.0994 96.6062 85.4371 96.6068H55.3875C53.7255 96.6054 52.132 95.9441 50.9567 94.7681C49.7815 93.5921 49.1206 91.9976 49.1192 90.3345V89.3309C49.1215 87.6681 49.7827 86.0741 50.9577 84.8983C52.1327 83.7225 53.7257 83.0609 55.3875 83.0586Z" fill="#E4E4E4"/>
<path d="M67.1322 96.3575H73.6512V134.01H67.1322V96.3575Z" fill="#E4E4E4"/>
<path d="M92.2054 133.781C92.2054 134.485 82.3268 134.053 70.141 134.053C57.9552 134.053 48.0766 134.486 48.0766 133.781C48.0766 133.076 57.9552 127.487 70.141 127.487C82.3268 127.487 92.2054 133.076 92.2054 133.781Z" fill="#E4E4E4"/>
<path d="M96.5845 129.479L101.436 129.478L103.744 110.752L96.5839 110.753L96.5845 129.479Z" fill="#FFB6B6"/>
<path d="M95.3472 134.184L110.991 134.184V133.986C110.991 132.37 110.35 130.82 109.208 129.678C108.066 128.535 106.517 127.893 104.902 127.893H104.902L95.347 127.893L95.3472 134.184Z" fill="#1F1E1C"/>
<path d="M110.924 129.479L115.776 129.478L118.084 110.752L110.923 110.753L110.924 129.479Z" fill="#FFB6B6"/>
<path d="M109.687 134.184L125.331 134.184V133.986C125.331 132.37 124.689 130.82 123.547 129.678C122.405 128.535 120.857 127.893 119.242 127.893H119.241L109.687 127.893L109.687 134.184Z" fill="#1F1E1C"/>
<path d="M67.4635 21.672C62.8046 21.672 59.0277 17.8927 59.0277 13.2308C59.0277 8.56882 62.8046 4.78955 67.4635 4.78955C72.1225 4.78955 75.8993 8.56882 75.8993 13.2308C75.8993 17.8927 72.1225 21.672 67.4635 21.672Z" fill="#FFB6B6"/>
<path d="M53.8105 71.0668C53.8105 71.0668 50.98 86.0435 61.7494 87.9507C72.5189 89.8578 88.0649 91.1982 88.0649 91.1982L95.0461 123.791L104.425 122.953C104.425 122.953 103.178 83.7188 100.11 80.6492C97.0427 77.5797 77.6546 68.3888 77.6546 68.3888L53.8105 71.0668Z" fill="#1F1E1C"/>
<path d="M74.8439 64.7899L79.5539 69.518C79.5539 69.518 113.563 74.9995 114.875 82.8596C116.856 94.7265 119.196 120.532 119.196 120.532L108.971 119.764L104.961 90.4308L88.6004 86.7069L69.9869 76.5564L74.8439 64.7899Z" fill="#1F1E1C"/>
<path d="M59.346 8.19194C60.1787 6.61977 61.2368 3.48646 62.9176 2.90535C63.851 2.59565 64.8157 2.39001 65.7942 2.29215L68.651 3.39165L67.0962 2.18159C67.3989 2.16354 67.7015 2.14879 68.0039 2.13733L69.9314 2.87917L68.9453 2.11166C70.7423 2.0932 72.5973 2.28018 73.9897 3.37486C75.1768 4.30807 76.3529 7.84328 76.5431 9.34178C76.7464 10.7753 76.6752 12.2345 76.3334 13.6414L75.8452 14.1058C75.6745 13.7141 75.5461 13.3051 75.4623 12.886C75.2873 12.1029 74.9511 11.3648 74.4753 10.7189C73.9995 10.0729 73.3944 9.53326 72.6986 9.13426L72.672 9.11927C71.8533 8.65818 70.8599 8.67944 69.921 8.71325L65.4618 8.87381C64.389 8.91245 63.2338 8.98037 62.3974 9.65376C61.8658 10.1505 61.4479 10.7564 61.1722 11.4299C60.7566 12.2692 59.9444 15.4351 59.9444 15.4351C59.9444 15.4351 59.4849 14.8375 59.2647 15.2823C58.9115 14.1218 58.6968 12.9236 58.625 11.7126C58.5548 10.4962 58.8033 9.28262 59.346 8.19194Z" fill="#1F1E1C"/>
<path d="M29.8413 16.9378C30.3794 16.9732 30.9032 17.1263 31.3758 17.3863C31.8484 17.6462 32.2583 18.0067 32.5766 18.4423C32.8949 18.8779 33.1139 19.378 33.2181 19.9074C33.3224 20.4369 33.3093 20.9828 33.1799 21.5066L39.9636 26.5138L37.9281 31.381L28.4476 24.1753C27.5825 23.8994 26.8486 23.3156 26.3849 22.5345C25.9212 21.7534 25.76 20.8292 25.9318 19.9371C26.1036 19.045 26.5965 18.2469 27.317 17.6941C28.0375 17.1413 28.9357 16.8722 29.8413 16.9378Z" fill="#FFB6B6"/>
<path d="M30.933 27.1599L47.939 46.0591C47.939 46.0591 56.0716 43.4539 62.3611 40.6296L65.1867 31.9456C65.8428 29.9311 66.1228 27.8129 66.0127 25.6969C57.2936 23.3753 47.1522 32.0137 47.1522 32.0137L34.4226 22.0361L30.933 27.1599Z" fill="#CEBA90"/>
<path d="M70.6145 72.4625C73.6485 71.4138 76.7858 70.3294 80.1697 69.9223L80.3151 69.9047L80.275 69.764C76.772 57.4565 77.6463 49.5835 79.3629 37.7573C79.728 35.2063 79.2589 32.6057 78.0256 30.3434C76.7924 28.0812 74.861 26.2787 72.52 25.205L72.4992 25.1956L62.8343 24.5811L62.8122 24.5797L55.7831 26.6484C54.772 26.9482 53.887 27.5714 53.2636 28.4226C52.6403 29.2739 52.3131 30.3061 52.3321 31.3612C52.4083 35.2505 52.2467 39.5928 52.0758 44.1899C51.6922 54.5033 51.2956 65.1679 53.5462 72.0874L53.5581 72.1237L53.5881 72.1472C55.6572 73.8335 58.2494 74.7446 60.9178 74.7236C64.0728 74.7236 67.2925 73.6107 70.6145 72.4625Z" fill="#CEBA90"/>
<path d="M0.449455 135H310.551C310.67 135 310.784 134.953 310.868 134.868C310.953 134.784 311 134.67 311 134.55C311 134.431 310.953 134.317 310.868 134.232C310.784 134.148 310.67 134.101 310.551 134.101H0.449455C0.330254 134.101 0.215935 134.148 0.131645 134.232C0.0473862 134.317 5.34058e-05 134.431 5.34058e-05 134.55C5.34058e-05 134.67 0.0473862 134.784 0.131645 134.868C0.215935 134.953 0.330254 135 0.449455 135Z" fill="#AFADAD"/>
</g>
<defs>
<clipPath id="clip0">
<rect width="311" height="135" fill="white" transform="matrix(-1 0 0 1 311 0)"/>
</clipPath>
</defs>
</svg>
